<svg width="23" height="16" viewBox="0 0 23 16" fill="none" xmlns="http://www.w3.org/2000/svg">
<path d="M21.4815 15.4735H0.740741C0.544284 15.4735 0.355874 15.3994 0.216958 15.2675C0.0780421 15.1356 0 14.9567 0 14.7702C0 14.5836 0.0780421 14.4047 0.216958 14.2728C0.355874 14.1409 0.544284 14.0668 0.740741 14.0668H21.4815C21.6779 14.0668 21.8664 14.1409 22.0053 14.2728C22.1442 14.4047 22.2222 14.5836 22.2222 14.7702C22.2222 14.9567 22.1442 15.1356 22.0053 15.2675C21.8664 15.3994 21.6779 15.4735 21.4815 15.4735Z" fill="white"/>
<path d="M21.4815 8.44006H0.740741C0.544284 8.44006 0.355874 8.36596 0.216958 8.23406C0.0780421 8.10216 0 7.92326 0 7.73672C0 7.55019 0.0780421 7.37129 0.216958 7.23939C0.355874 7.10749 0.544284 7.03339 0.740741 7.03339H21.4815C21.6779 7.03339 21.8664 7.10749 22.0053 7.23939C22.1442 7.37129 22.2222 7.55019 22.2222 7.73672C22.2222 7.92326 22.1442 8.10216 22.0053 8.23406C21.8664 8.36596 21.6779 8.44006 21.4815 8.44006Z" fill="white"/>
<path d="M21.4815 1.40668H0.740741C0.544284 1.40668 0.355874 1.33258 0.216958 1.20067C0.0780421 1.06877 0 0.889876 0 0.703339C0 0.516802 0.0780421 0.337905 0.216958 0.206003C0.355874 0.0741017 0.544284 0 0.740741 0H21.4815C21.6779 0 21.8664 0.0741017 22.0053 0.206003C22.1442 0.337905 22.2222 0.516802 22.2222 0.703339C22.2222 0.889876 22.1442 1.06877 22.0053 1.20067C21.8664 1.33258 21.6779 1.40668 21.4815 1.40668Z" fill="white"/>
</svg>
