<svg width="52" height="39" viewBox="0 0 52 39" fill="none" xmlns="http://www.w3.org/2000/svg">
<path d="M0 6.45097C0 4.74007 0.68482 3.09924 1.90381 1.88944C3.12279 0.679653 4.77609 0 6.5 0H45.5C47.2239 0 48.8772 0.679653 50.0962 1.88944C51.3152 3.09924 52 4.74007 52 6.45097V9.67645H0V6.45097ZM0 16.1274V32.2548C0 33.9657 0.68482 35.6066 1.90381 36.8164C3.12279 38.0262 4.77609 38.7058 6.5 38.7058H45.5C47.2239 38.7058 48.8772 38.0262 50.0962 36.8164C51.3152 35.6066 52 33.9657 52 32.2548V16.1274H0ZM9.75 22.5784H13C13.862 22.5784 14.6886 22.9182 15.2981 23.5231C15.9076 24.128 16.25 24.9484 16.25 25.8039V29.0294C16.25 29.8848 15.9076 30.7052 15.2981 31.3101C14.6886 31.915 13.862 32.2548 13 32.2548H9.75C8.88805 32.2548 8.0614 31.915 7.4519 31.3101C6.84241 30.7052 6.5 29.8848 6.5 29.0294V25.8039C6.5 24.9484 6.84241 24.128 7.4519 23.5231C8.0614 22.9182 8.88805 22.5784 9.75 22.5784Z" fill="#292929"/>
</svg>
