<svg width="52" height="49" viewBox="0 0 52 49" fill="none" xmlns="http://www.w3.org/2000/svg">
<path d="M50.9238 23.9647L27.2974 0.533641C27.1273 0.364478 26.9252 0.230271 26.7028 0.138702C26.4803 0.0471334 26.2419 0 26.0011 0C25.7603 0 25.5218 0.0471334 25.2994 0.138702C25.0769 0.230271 24.8749 0.364478 24.7048 0.533641L1.07836 23.9647C0.390045 24.6478 0 25.5757 0 26.5434C0 28.553 1.64622 30.1868 3.67101 30.1868H6.16041V46.9061C6.16041 47.9137 6.98066 48.7278 7.99592 48.7278H22.3301V35.9762H28.7543V48.7278H44.0062C45.0215 48.7278 45.8417 47.9137 45.8417 46.9061V30.1868H48.3311C49.3063 30.1868 50.2412 29.8053 50.9295 29.1165C52.3578 27.6934 52.3578 25.3878 50.9238 23.9647Z" fill="#292929"/>
</svg>
